<svg xml:space="preserve" viewBox="0 0 119.379 119.379" xmlns="http://www.w3.org/2000/svg" width="50" height="50" fill="#14213D"><g stroke-width="0"/><g stroke-linejoin="round" stroke-linecap="round"/><path d="M109.04 41.323C99.467 21.73 89.211 20.362 79.661 25.032c-2.861 1.399-5.321 3.192-7.125 5.529H46.845c-1.802-2.337-4.261-4.129-7.123-5.529-9.55-4.67-19.806-3.301-29.379 16.291C.762 60.911-4.502 91.309 5.048 95.979c5.87 2.868 15.969-4.67 25.105-15.444 2.62 4.825 7.731 8.101 13.608 8.101 7.542 0 13.819-5.396 15.193-12.537h1.475c1.373 7.141 7.651 12.537 15.193 12.537 5.849 0 10.939-3.246 13.57-8.034 9.736 11.035 19.723 18.025 25.139 15.377 9.557-4.67 4.284-35.068-5.288-54.656zM33.193 59.244c0 .175-.054.334-.099.494a1.84 1.84 0 0 1-1.351 1.302c-.142.031-.278.086-.432.086h-6.189a1.883 1.883 0 0 1-1.882-1.882v-3.799h-3.803a1.882 1.882 0 0 1-1.881-1.882v-6.19a1.882 1.882 0 0 1 1.881-1.882h3.803v-3.806a1.883 1.883 0 0 1 1.882-1.882h6.19a1.883 1.883 0 0 1 1.882 1.882v3.806h3.803a1.883 1.883 0 0 1 1.882 1.882v6.19a1.883 1.883 0 0 1-1.882 1.882h-3.803v3.799zm10.566 23.249c-5.154 0-9.332-4.178-9.332-9.332s4.178-9.332 9.332-9.332 9.332 4.178 9.332 9.332a9.332 9.332 0 0 1-9.332 9.332zm31.86 0c-5.154 0-9.332-4.178-9.332-9.332s4.178-9.332 9.332-9.332a9.332 9.332 0 0 1 9.332 9.332 9.332 9.332 0 0 1-9.332 9.332zm8.668-28.444a3.58 3.58 0 0 1-3.577-3.585 3.58 3.58 0 0 1 3.577-3.578 3.581 3.581 0 0 1 0 7.163zm8.684 7.115a3.566 3.566 0 0 1-1.304.265c-.074 0-.136-.039-.21-.043-1.668-.101-2.97-1.333-3.248-2.947-.033-.198-.119-.381-.119-.591a3.579 3.579 0 0 1 3.578-3.581c.463 0 .898.105 1.304.265a3.564 3.564 0 0 1 2.273 3.317 3.568 3.568 0 0 1-2.273 3.316zm0-14.76c-.406.16-.842.264-1.304.264-1.979 0-3.578-1.606-3.578-3.581s1.598-3.581 3.578-3.581c.463 0 .898.105 1.304.265a3.564 3.564 0 0 1 2.273 3.317 3.57 3.57 0 0 1-2.273 3.317zm6.075 7.644a3.58 3.58 0 0 1-3.577-3.585 3.579 3.579 0 0 1 3.577-3.578c1.979 0 3.577 1.626 3.577 3.578a3.58 3.58 0 0 1-3.577 3.585z"/></svg>